# xmcd
#
# Track frame offsets:
# 150
# 13800
# 31875
# 46755
# 70589
# 86059
# 96268
# 110682
# 126874
# 144762
# 159802
# 177410
# 194639
# 215191
# 229377
# 246217
# 268140
# 283123
# 309145
# 329427
#
# Disc length: 4679 seconds
#
#
# Revision: 0
# Processed by: cddbd v1.5.2PL0 Copyright (c) Steve Scherf et al.
# Submitted via: FreeRIP 2.90 
#
DISCID=24124514
DTITLE=ALL - Disc 1
DYEAR=2007
DGENRE=Pop
TTITLE0=紙婚
TTITLE1=一句
TTITLE2=童夢
TTITLE3=錢錢錢錢
TTITLE4=吻感
TTITLE5=My Love Will Get You Home
TTITLE6=花落誰家
TTITLE7=半邊天
TTITLE8=愛到不能
TTITLE9=前程錦繡
TTITLE10=思前念後
TTITLE11=講不出聲
TTITLE12=心領
TTITLE13=邁向夢想的天空
TTITLE14=祝君好
TTITLE15=愛你還愛你
TTITLE16=情戒
TTITLE17=固執
TTITLE18=感激我遇見
TTITLE19=不要墨爾本的翡翠
EXTD=
EXTT0=
EXTT1=
EXTT2=
EXTT3=
EXTT4=
EXTT5=
EXTT6=
EXTT7=
EXTT8=
EXTT9=
EXTT10=
EXTT11=
EXTT12=
EXTT13=
EXTT14=
EXTT15=
EXTT16=
EXTT17=
EXTT18=
EXTT19=
PLAYORDER=
